#!OML:ASF H:\Terrain\Patient Classification 1\Terrain2\Thursday\justin.ASF
:FULLY-SPECIFIED
:DEGREES
2885
root 11.0715 17.5499 9.51656 1462.94 -85.1645 330.529
lowerback 7.00861 -0.424933 0.00352128
upperback 2.23115 -0.582805 3.18951
thorax -1.59296 -0.332622 3.33931
lowerneck -13.0624 -0.647864 -8.80515
upperneck 38.9862 -1.72994 4.2603
head 16.2307 -2.02036 2.98868
rclavicle 2.48481e-016 -3.02153e-014
rhumerus -36.5183 -20.4225 -71.3474
rradius 25.0775
rwrist -5.25834
rhand -18.3939 8.31464
rfingers 7.12502
rthumb 7.89017 -21.5181
lclavicle 2.48481e-016 -3.02153e-014
lhumerus -42.9669 17.0475 75.3692
lradius 24.64
lwrist -8.9033
lhand -19.1494 20.2953
lfingers 7.12502
lthumb 7.16091 50.1541
rfemur -3.10366 -3.94262 28.0824
rtibia 34.3562
rfoot -19.4819 1.28532
rtoes 27.7576
lfemur -10.7933 11.8491 8.33734
ltibia 114.406
lfoot 22.0476 -22.5192
ltoes 9.25991
2886
root 10.9772 17.6059 9.52116 1464.75 -85.1197 328.811
lowerback 6.92978 -0.326077 0.24041
upperback 2.23009 -0.436796 3.2497
thorax -1.55997 -0.260505 3.25493
lowerneck -12.988 -0.802141 -8.91278
upperneck 38.7137 -1.93081 4.32495
head 16.0929 -2.09355 2.99723
rclavicle -3.98812e-015 2.3059e-014
rhumerus -36.4259 -18.7436 -72.3264
rradius 26.412
rwrist -8.68979
rhand -19.3424 8.79593
rfingers 7.12502
rthumb 6.97462 -21.0692
lclavicle -3.98812e-015 2.3059e-014
lhumerus -42.8954 15.4571 76.5076
lradius 25.3358
lwrist -9.42139
lhand -19.4102 19.5154
lfingers 7.12502
lthumb 6.90924 49.3826
rfemur -2.04877 -3.9779 28.1605
rtibia 32.8429
rfoot -18.7699 1.62491
rtoes 27.3329
lfemur -11.7151 12.3956 8.44934
ltibia 114.889
lfoot 22.9975 -22.1845
ltoes 10.0856
2887
root 10.8886 17.6593 9.52854 1470.17 -84.9849 323.416
lowerback 7.01865 -0.219558 0.940615
upperback 2.22733 -0.248354 3.35165
thorax -1.62475 -0.16827 2.95099
lowerneck -12.8678 -0.936624 -9.06395
upperneck 38.3488 -2.09926 4.43626
head 15.8961 -2.14881 3.03768
rclavicle 1.02126e-014 5.56597e-015
rhumerus -36.4137 -17.3728 -73.1247
rradius 27.716
rwrist -11.182
rhand -20.3583 9.30305
rfingers 7.12502
rthumb 5.99389 -20.5922
lclavicle 1.02126e-014 5.56597e-015
lhumerus -42.8693 14.1254 77.4852
lradius 26.2075
lwrist -10.075
lhand -20.1361 19.5792
lfingers 7.12502
lthumb 6.20842 49.4682
rfemur -0.941344 -3.85124 28.5265
rtibia 31.2824
rfoot -18.0865 2.26672
rtoes 28.5446
lfemur -12.6431 12.8483 8.99915
ltibia 115.454
lfoot 24.0729 -21.815
ltoes 11.3081
2888
root 10.7984 17.7221 9.53918 1474.01 -84.9527 319.663
lowerback 6.98905 -0.0931551 1.50812
upperback 2.24695 -0.04551 3.32884
thorax -1.59718 -0.0677537 2.59016
lowerneck -12.7824 -1.10932 -9.13286
upperneck 37.9949 -2.38965 4.65034
head 15.7274 -2.23062 3.08817
rclavicle 8.84592e-015 -1.90833e-014
rhumerus -36.4848 -16.4857 -73.7388
rradius 29.0406
rwrist -12.4612
rhand -20.8792 9.79496
rfingers 7.12502
rthumb 5.49101 -20.1139
lclavicle 8.84592e-015 -1.90833e-014
lhumerus -42.758 12.8111 78.2935
lradius 27.057
lwrist -10.2593
lhand -21.8006 19.7186
lfingers 7.12502
lthumb 4.60134 49.6487
rfemur 0.0847614 -3.75896 28.6946
rtibia 29.7642
rfoot -17.2137 2.63732
rtoes 28.5142
lfemur -13.5653 13.3663 9.27758
ltibia 116.027
lfoot 24.8781 -21.5856
ltoes 12.6474
2889
root 10.703 17.784 9.54918 1476.9 -84.9307 316.892
lowerback 6.82984 0.0548396 1.9258
upperback 2.25182 0.172526 3.29431
thorax -1.50941 0.041517 2.30061
lowerneck -12.7031 -1.30061 -9.16888
upperneck 37.7413 -2.73206 4.86795
head 15.6186 -2.3362 3.12739
rclavicle 2.73329e-016 1.11319e-014
rhumerus -36.6409 -15.2843 -74.4916
rradius 30.4274
rwrist -14.0465
rhand -21.4317 10.3946
rfingers 7.12502
rthumb 4.95749 -19.5274
lclavicle 2.73329e-016 1.11319e-014
lhumerus -42.6612 11.693 78.9203
lradius 27.6892
lwrist -10.2902
lhand -22.8198 19.3845
lfingers 7.12502
lthumb 3.61714 49.3336
rfemur 1.03996 -3.78963 28.7718
rtibia 28.2742
rfoot -16.1139 2.87819
rtoes 28.0189
lfemur -14.4564 13.9137 9.33363
ltibia 116.589
lfoot 25.4893 -22.0656
ltoes 14.438
